{
	"asset":{
		"generator":"Khronos glTF Blender I/O v3.6.27",
		"version":"2.0"
	},
	"scene":0,
	"scenes":[
		{
			"name":"Scene",
			"nodes":[
				0,
				1,
				2,
				3
			]
		}
	],
	"nodes":[
		{
			"mesh":0,
			"name":"Cylinder",
			"scale":[
				0.7154820561408997,
				2.833308696746826,
				0.604992687702179
			],
			"translation":[
				0,
				0.23888777196407318,
				0
			]
		},
		{
			"mesh":1,
			"name":"Sphere",
			"scale":[
				0.76011723279953,
				0.9564425349235535,
				0.6427350044250488
			],
			"translation":[
				0,
				2.8489489555358887,
				0
			]
		},
		{
			"mesh":2,
			"name":"Sphere.001",
			"scale":[
				0.8275613784790039,
				1.2072757482528687,
				1
			],
			"translation":[
				-0.5684022307395935,
				-2.598571300506592,
				0.8645957112312317
			]
		},
		{
			"mesh":3,
			"name":"Sphere.002",
			"scale":[
				0.8275613784790039,
				1.2072757482528687,
				1
			],
			"translation":[
				0.6454264521598816,
				-2.598571300506592,
				0.8645957112312317
			]
		}
	],
	"materials":[
		{
			"doubleSided":true,
			"name":"Material.002",
			"pbrMetallicRoughness":{
				"baseColorFactor":[
					0.800000011920929,
					0.800000011920929,
					0.800000011920929,
					1
				],
				"metallicFactor":0,
				"roughnessFactor":0.5
			}
		},
		{
			"doubleSided":true,
			"name":"Material.001",
			"pbrMetallicRoughness":{
				"baseColorFactor":[
					0.7571775317192078,
					0.8000000715255737,
					0.7597718238830566,
					1
				],
				"metallicFactor":0,
				"roughnessFactor":0.5
			}
		}
	],
	"meshes":[
		{
			"name":"Cylinder",
			"primitives":[
				{
					"attributes":{
						"POSITION":0,
						"NORMAL":1,
						"TEXCOORD_0":2
					},
					"indices":3
				}
			]
		},
		{
			"name":"Sphere",
			"primitives":[
				{
					"attributes":{
						"POSITION":4,
						"NORMAL":5,
						"TEXCOORD_0":6
					},
					"indices":7,
					"material":0
				}
			]
		},
		{
			"name":"Sphere.001",
			"primitives":[
				{
					"attributes":{
						"POSITION":8,
						"NORMAL":9,
						"TEXCOORD_0":10
					},
					"indices":11,
					"material":1
				}
			]
		},
		{
			"name":"Sphere.002",
			"primitives":[
				{
					"attributes":{
						"POSITION":12,
						"NORMAL":13,
						"TEXCOORD_0":14
					},
					"indices":11
				}
			]
		}
	],
	"accessors":[
		{
			"bufferView":0,
			"componentType":5126,
			"count":770,
			"max":[
				1.0326344966888428,
				0.8603938817977905,
				1.094815969467163
			],
			"min":[
				-1,
				-1,
				-1.3403985500335693
			],
			"type":"VEC3"
		},
		{
			"bufferView":1,
			"componentType":5126,
			"count":770,
			"type":"VEC3"
		},
		{
			"bufferView":2,
			"componentType":5126,
			"count":770,
			"type":"VEC2"
		},
		{
			"bufferView":3,
			"componentType":5123,
			"count":1332,
			"type":"SCALAR"
		},
		{
			"bufferView":4,
			"componentType":5126,
			"count":3968,
			"max":[
				1.0307177305221558,
				0.45853573083877563,
				0.7103860974311829
			],
			"min":[
				-0.9692806601524353,
				-1.454592227935791,
				-1.2901725769042969
			],
			"type":"VEC3"
		},
		{
			"bufferView":5,
			"componentType":5126,
			"count":3968,
			"type":"VEC3"
		},
		{
			"bufferView":6,
			"componentType":5126,
			"count":3968,
			"type":"VEC2"
		},
		{
			"bufferView":7,
			"componentType":5123,
			"count":5760,
			"type":"SCALAR"
		},
		{
			"bufferView":8,
			"componentType":5126,
			"count":1184,
			"max":[
				1,
				1,
				1.0016645193099976
			],
			"min":[
				-1,
				-0.006943464279174805,
				-1
			],
			"type":"VEC3"
		},
		{
			"bufferView":9,
			"componentType":5126,
			"count":1184,
			"type":"VEC3"
		},
		{
			"bufferView":10,
			"componentType":5126,
			"count":1184,
			"type":"VEC2"
		},
		{
			"bufferView":11,
			"componentType":5123,
			"count":1812,
			"type":"SCALAR"
		},
		{
			"bufferView":12,
			"componentType":5126,
			"count":1184,
			"max":[
				1,
				1,
				0.9999993443489075
			],
			"min":[
				-1,
				-0.012423276901245117,
				-1.005267858505249
			],
			"type":"VEC3"
		},
		{
			"bufferView":13,
			"componentType":5126,
			"count":1184,
			"type":"VEC3"
		},
		{
			"bufferView":14,
			"componentType":5126,
			"count":1184,
			"type":"VEC2"
		}
	],
	"bufferViews":[
		{
			"buffer":0,
			"byteLength":9240,
			"byteOffset":0,
			"target":34962
		},
		{
			"buffer":0,
			"byteLength":9240,
			"byteOffset":9240,
			"target":34962
		},
		{
			"buffer":0,
			"byteLength":6160,
			"byteOffset":18480,
			"target":34962
		},
		{
			"buffer":0,
			"byteLength":2664,
			"byteOffset":24640,
			"target":34963
		},
		{
			"buffer":0,
			"byteLength":47616,
			"byteOffset":27304,
			"target":34962
		},
		{
			"buffer":0,
			"byteLength":47616,
			"byteOffset":74920,
			"target":34962
		},
		{
			"buffer":0,
			"byteLength":31744,
			"byteOffset":122536,
			"target":34962
		},
		{
			"buffer":0,
			"byteLength":11520,
			"byteOffset":154280,
			"target":34963
		},
		{
			"buffer":0,
			"byteLength":14208,
			"byteOffset":165800,
			"target":34962
		},
		{
			"buffer":0,
			"byteLength":14208,
			"byteOffset":180008,
			"target":34962
		},
		{
			"buffer":0,
			"byteLength":9472,
			"byteOffset":194216,
			"target":34962
		},
		{
			"buffer":0,
			"byteLength":3624,
			"byteOffset":203688,
			"target":34963
		},
		{
			"buffer":0,
			"byteLength":14208,
			"byteOffset":207312,
			"target":34962
		},
		{
			"buffer":0,
			"byteLength":14208,
			"byteOffset":221520,
			"target":34962
		},
		{
			"buffer":0,
			"byteLength":9472,
			"byteOffset":235728,
			"target":34962
		}
	],
	"buffers":[
		{
			"byteLength":245200,
			"uri":"data:application/octet-stream;base64,"
		}
	]
}
