{
	"asset":{
		"generator":"Khronos glTF Blender I/O v3.6.28",
		"version":"2.0"
	},
	"extensionsUsed":[
		"KHR_materials_specular",
		"KHR_materials_ior"
	],
	"scene":0,
	"scenes":[
		{
			"name":"Scene",
			"nodes":[
				0,
				1,
				2
			]
		}
	],
	"nodes":[
		{
			"mesh":0,
			"name":"BasicFloor",
			"scale":[
				0.20000000298023224,
				0.02500000037252903,
				0.20000000298023224
			],
			"translation":[
				0,
				0.02500000037252903,
				0
			]
		},
		{
			"mesh":1,
			"name":"Wall",
			"scale":[
				0.02500000037252903,
				0.05000000074505806,
				0.22499999403953552
			],
			"translation":[
				0.22499999403953552,
				0.05000000074505806,
				0
			]
		},
		{
			"mesh":2,
			"name":"HoleFloor",
			"scale":[
				0.20000000298023224,
				0.02500000037252903,
				0.20000000298023224
			],
			"translation":[
				0.44999998807907104,
				0.02500000037252903,
				0
			]
		}
	],
	"materials":[
		{
			"doubleSided":true,
			"name":"Grass.002",
			"pbrMetallicRoughness":{
				"baseColorFactor":[
					0.00908659864217043,
					0.5329645872116089,
					0,
					1
				],
				"metallicFactor":0,
				"roughnessFactor":0.5
			}
		},
		{
			"doubleSided":true,
			"extensions":{
				"KHR_materials_specular":{
					"specularColorFactor":[
						0,
						0,
						0
					]
				},
				"KHR_materials_ior":{
					"ior":1.4500000476837158
				}
			},
			"name":"Wood",
			"pbrMetallicRoughness":{
				"baseColorFactor":[
					0.31466081738471985,
					0.18641608953475952,
					0.06885889917612076,
					1
				],
				"metallicFactor":0
			}
		},
		{
			"doubleSided":true,
			"name":"Grass.003",
			"pbrMetallicRoughness":{
				"baseColorFactor":[
					0.00908659864217043,
					0.5329645872116089,
					0,
					1
				],
				"metallicFactor":0,
				"roughnessFactor":0.5
			}
		}
	],
	"meshes":[
		{
			"name":"Cube.005",
			"primitives":[
				{
					"attributes":{
						"POSITION":0,
						"NORMAL":1,
						"TEXCOORD_0":2
					},
					"indices":3,
					"material":0
				}
			]
		},
		{
			"name":"Cube.003",
			"primitives":[
				{
					"attributes":{
						"POSITION":4,
						"NORMAL":5,
						"TEXCOORD_0":6
					},
					"indices":3,
					"material":1
				}
			]
		},
		{
			"name":"Cube.006",
			"primitives":[
				{
					"attributes":{
						"POSITION":7,
						"NORMAL":8,
						"TEXCOORD_0":9
					},
					"indices":10,
					"material":2
				}
			]
		}
	],
	"accessors":[
		{
			"bufferView":0,
			"componentType":5126,
			"count":24,
			"max":[
				1,
				1,
				1
			],
			"min":[
				-1,
				-1,
				-1
			],
			"type":"VEC3"
		},
		{
			"bufferView":1,
			"componentType":5126,
			"count":24,
			"type":"VEC3"
		},
		{
			"bufferView":2,
			"componentType":5126,
			"count":24,
			"type":"VEC2"
		},
		{
			"bufferView":3,
			"componentType":5123,
			"count":36,
			"type":"SCALAR"
		},
		{
			"bufferView":4,
			"componentType":5126,
			"count":24,
			"max":[
				1,
				1,
				1
			],
			"min":[
				-1,
				-1,
				-1
			],
			"type":"VEC3"
		},
		{
			"bufferView":5,
			"componentType":5126,
			"count":24,
			"type":"VEC3"
		},
		{
			"bufferView":6,
			"componentType":5126,
			"count":24,
			"type":"VEC2"
		},
		{
			"bufferView":7,
			"componentType":5126,
			"count":216,
			"max":[
				1.000000238418579,
				1,
				1
			],
			"min":[
				-0.9999997615814209,
				-1,
				-1
			],
			"type":"VEC3"
		},
		{
			"bufferView":8,
			"componentType":5126,
			"count":216,
			"type":"VEC3"
		},
		{
			"bufferView":9,
			"componentType":5126,
			"count":216,
			"type":"VEC2"
		},
		{
			"bufferView":10,
			"componentType":5123,
			"count":420,
			"type":"SCALAR"
		}
	],
	"bufferViews":[
		{
			"buffer":0,
			"byteLength":288,
			"byteOffset":0,
			"target":34962
		},
		{
			"buffer":0,
			"byteLength":288,
			"byteOffset":288,
			"target":34962
		},
		{
			"buffer":0,
			"byteLength":192,
			"byteOffset":576,
			"target":34962
		},
		{
			"buffer":0,
			"byteLength":72,
			"byteOffset":768,
			"target":34963
		},
		{
			"buffer":0,
			"byteLength":288,
			"byteOffset":840,
			"target":34962
		},
		{
			"buffer":0,
			"byteLength":288,
			"byteOffset":1128,
			"target":34962
		},
		{
			"buffer":0,
			"byteLength":192,
			"byteOffset":1416,
			"target":34962
		},
		{
			"buffer":0,
			"byteLength":2592,
			"byteOffset":1608,
			"target":34962
		},
		{
			"buffer":0,
			"byteLength":2592,
			"byteOffset":4200,
			"target":34962
		},
		{
			"buffer":0,
			"byteLength":1728,
			"byteOffset":6792,
			"target":34962
		},
		{
			"buffer":0,
			"byteLength":840,
			"byteOffset":8520,
			"target":34963
		}
	],
	"buffers":[
		{
			"byteLength":9360,
			"uri":"data:application/octet-stream;base64,"
		}
	]
}
